<svg width="24" height="24" viewBox="0 0 24 24" fill="none" xmlns="http://www.w3.org/2000/svg">
<path d="M23.8125 4.125C23.8125 1.85048 21.962 0 19.6875 0C16.7333 0 14.7325 3.03394 15.8938 5.7443C13.3947 6.57731 12.8252 6.7665 12.7974 6.77766C11.6325 4.74638 9.44222 3.375 6.9375 3.375C3.21553 3.375 0.1875 6.40303 0.1875 10.125C0.1875 12.5191 1.44052 14.6258 3.32503 15.8245C3.34898 15.8442 3.37556 15.8605 3.40392 15.8738C5.54944 17.1975 8.25384 17.2079 10.4058 15.9137L13.7557 18.4259C11.8668 20.6187 13.4453 24 16.3125 24C18.1749 24 19.6875 22.4832 19.6875 20.625C19.6875 17.8489 16.5179 16.2827 14.3143 17.9072L11.0595 15.4664C13.5533 13.5374 14.334 10.2236 13.1361 7.45406L16.2574 6.41363C16.6028 6.92972 17.0616 7.36373 17.5978 7.68014C17.614 7.69148 17.6313 7.70142 17.6492 7.71014C18.8884 8.41744 20.4423 8.4428 21.7259 7.71014C21.7438 7.70142 21.7611 7.69148 21.7773 7.68014C22.9942 6.96206 23.8125 5.63742 23.8125 4.125ZM3.9375 15.3195V13.875C3.9375 12.2208 5.28328 10.875 6.9375 10.875C8.59538 10.875 9.9375 12.217 9.9375 13.875V15.3195C8.08537 16.3933 5.79206 16.3948 3.9375 15.3195ZM5.0625 8.25C5.0625 7.21613 5.90363 6.375 6.9375 6.375C7.97137 6.375 8.8125 7.21613 8.8125 8.25C8.8125 9.28387 7.97137 10.125 6.9375 10.125C5.90363 10.125 5.0625 9.28387 5.0625 8.25ZM15.9375 20.4684C15.9375 20.2617 16.1057 20.0934 16.3125 20.0934C16.5193 20.0934 16.6875 20.2617 16.6875 20.4684C16.6875 20.6752 16.5193 20.8434 16.3125 20.8434C16.1057 20.8434 15.9375 20.6752 15.9375 20.4684ZM15.5625 23.1403V22.3434C15.5625 21.9299 15.899 21.5934 16.3125 21.5934C16.7262 21.5934 17.0625 21.9288 17.0625 22.3434V23.1403C16.5727 23.2866 16.0527 23.2867 15.5625 23.1403ZM18.9375 20.625C18.9375 21.515 18.4919 22.3024 17.8125 22.7774C17.8125 22.3094 17.8832 21.648 17.2121 21.1432C17.7644 20.4089 17.2417 19.3435 16.3125 19.3435C15.3837 19.3435 14.86 20.4087 15.4132 21.1437C15.0488 21.4176 14.8125 21.8534 14.8125 22.3434V22.7773C14.1331 22.3024 13.6875 21.515 13.6875 20.625C13.6875 19.1775 14.8651 18 16.3125 18C17.7599 18 18.9375 19.1776 18.9375 20.625ZM10.6875 14.805V13.875C10.6875 12.3124 9.73683 10.9903 8.40741 10.4237C9.10392 9.95123 9.5625 9.15319 9.5625 8.25C9.5625 6.80259 8.38491 5.625 6.9375 5.625C5.49009 5.625 4.3125 6.80259 4.3125 8.25C4.3125 9.15384 4.77169 9.95241 5.46905 10.4248C4.12903 10.9973 3.1875 12.3281 3.1875 13.875V14.805C1.81673 13.7045 0.9375 12.0156 0.9375 10.125C0.9375 6.81656 3.62906 4.125 6.9375 4.125C10.2459 4.125 12.9375 6.81656 12.9375 10.125C12.9375 12.0156 12.0583 13.7045 10.6875 14.805ZM19.6875 0.75C22.7775 0.75 24.2378 4.58025 21.9348 6.64017C21.8963 5.83477 21.4367 5.14706 20.7759 4.7805C21.6767 3.82955 21.0025 2.25 19.6875 2.25C18.3723 2.25 17.6978 3.83039 18.5998 4.78125C17.9375 5.14861 17.4789 5.84016 17.4403 6.64027C15.1371 4.58034 16.5975 0.75 19.6875 0.75ZM18.9375 3.75C18.9375 3.33647 19.274 3 19.6875 3C20.101 3 20.4375 3.33647 20.4375 3.75C20.4375 4.16353 20.101 4.5 19.6875 4.5C19.274 4.5 18.9375 4.16353 18.9375 3.75ZM18.1875 7.14713V6.75C18.1875 5.92289 18.8604 5.25 19.6875 5.25C20.516 5.25 21.1875 5.92144 21.1875 6.75V7.14713C20.2618 7.60852 19.1504 7.62698 18.1875 7.14713Z" fill="#121212"/>
</svg>
