<svg width="24" height="24" viewBox="0 0 24 24" fill="none" xmlns="http://www.w3.org/2000/svg">
<path d="M11.4 1.5H1.5V11.4V12.6V22.5H11.4H12.6H22.5V12.6V11.4V1.5H12.6H11.4ZM2.7 2.7H11.4V11.4H2.7V2.7ZM11.4 21.3H2.7V12.6H11.4V21.3ZM21.3 21.3H12.6V12.6H21.3V21.3ZM21.3 2.7V11.4H12.6V2.7H21.3Z" fill="#121212" stroke="#121212" stroke-width="0.1"/>
<path d="M7.6501 3.6001H6.4501V6.4501H3.6001V7.6501H6.4501V10.5001H7.6501V7.6501H10.5001V6.4501H7.6501V3.6001Z" fill="#121212" stroke="#121212" stroke-width="0.1"/>
<path d="M5.03444 19.8138L7.04984 17.7984L9.06524 19.8138L9.91364 18.9654L7.89824 16.95L9.91364 14.9346L9.06524 14.0862L7.04984 16.1016L5.03444 14.0862L4.18604 14.9346L6.20144 16.95L4.18604 18.9654L5.03444 19.8138Z" fill="#121212" stroke="#121212" stroke-width="0.1"/>
<path d="M20.4 6.44995H13.5V7.64995H20.4V6.44995Z" fill="#121212" stroke="#121212" stroke-width="0.1"/>
<path d="M20.4 14.7H13.5V15.9H20.4V14.7Z" fill="#121212" stroke="#121212" stroke-width="0.1"/>
<path d="M20.4 18H13.5V19.2H20.4V18Z" fill="#121212" stroke="#121212" stroke-width="0.1"/>
</svg>
