<svg width="24" height="24" viewBox="0 0 24 24" fill="none" xmlns="http://www.w3.org/2000/svg">
<path d="M19.5 2.99982H4.5C3.90326 2.99982 3.33097 3.23688 2.90901 3.65883C2.48705 4.08079 2.25 4.65309 2.25 5.24982V14.9998C2.25 15.5966 2.48705 16.1689 2.90901 16.5908C3.33097 17.0128 3.90326 17.2498 4.5 17.2498H9.75L8.8275 20.0098C8.79031 20.1226 8.78043 20.2426 8.79869 20.36C8.81694 20.4773 8.8628 20.5887 8.9325 20.6848C9.00151 20.7818 9.0926 20.8609 9.19823 20.9156C9.30386 20.9704 9.42101 20.9993 9.54 20.9998H14.535C14.654 20.9993 14.7711 20.9704 14.8768 20.9156C14.9824 20.8609 15.0735 20.7818 15.1425 20.6848C15.2122 20.5887 15.2581 20.4773 15.2763 20.36C15.2946 20.2426 15.2847 20.1226 15.2475 20.0098L14.2875 17.2498H19.5375C20.1342 17.2498 20.7065 17.0128 21.1285 16.5908C21.5504 16.1689 21.7875 15.5966 21.7875 14.9998V5.24982C21.7875 4.95117 21.7281 4.65549 21.6127 4.38004C21.4973 4.10458 21.3282 3.85486 21.1153 3.64543C20.9024 3.436 20.6499 3.27105 20.3726 3.16021C20.0952 3.04937 19.7986 2.99485 19.5 2.99982ZM3.75 5.24982C3.75 5.05091 3.82902 4.86015 3.96967 4.71949C4.11032 4.57884 4.30109 4.49982 4.5 4.49982H19.5C19.6989 4.49982 19.8897 4.57884 20.0303 4.71949C20.171 4.86015 20.25 5.05091 20.25 5.24982V11.9998H3.75V5.24982ZM13.5 19.4998H10.575L11.325 17.2498H12.75L13.5 19.4998ZM20.25 14.9998C20.25 15.1987 20.171 15.3895 20.0303 15.5302C19.8897 15.6708 19.6989 15.7498 19.5 15.7498H4.5C4.30109 15.7498 4.11032 15.6708 3.96967 15.5302C3.82902 15.3895 3.75 15.1987 3.75 14.9998V13.4998H20.25V14.9998Z" fill="#121212"/>
</svg>
