<svg width="24" height="24" viewBox="0 0 24 24" fill="none" xmlns="http://www.w3.org/2000/svg">
<path d="M21.8137 8.76758L12.4387 2.01758C12.311 1.92544 12.1575 1.87585 12 1.87585C11.8425 1.87585 11.689 1.92544 11.5612 2.01758L2.18625 8.76758C2.09001 8.837 2.01162 8.92826 1.95751 9.03387C1.9034 9.13948 1.87512 9.25642 1.875 9.37508V21.3751C1.875 21.574 1.95402 21.7648 2.09467 21.9054C2.23532 22.0461 2.42609 22.1251 2.625 22.1251H21.375C21.5739 22.1251 21.7647 22.0461 21.9053 21.9054C22.046 21.7648 22.125 21.574 22.125 21.3751V9.37508C22.1249 9.25642 22.0966 9.13948 22.0425 9.03387C21.9884 8.92826 21.91 8.837 21.8137 8.76758ZM13.875 20.6251H10.125V13.8751H13.875V20.6251ZM20.625 20.6251H15.375V13.1251C15.375 12.9262 15.296 12.7354 15.1553 12.5947C15.0147 12.4541 14.8239 12.3751 14.625 12.3751H9.375C9.17609 12.3751 8.98532 12.4541 8.84467 12.5947C8.70402 12.7354 8.625 12.9262 8.625 13.1251V20.6251H3.375V9.75008L12 3.54758L20.625 9.75008V20.6251Z" fill="#121212"/>
</svg>
