<svg width="36" height="36" viewBox="0 0 36 36" fill="none" xmlns="http://www.w3.org/2000/svg">
<path d="M30.9375 11.25H29.25V5.625C29.2491 4.87935 28.9525 4.16449 28.4253 3.63723C27.898 3.10997 27.1832 2.81338 26.4375 2.8125H21.9375V1.125C21.9375 0.826636 21.819 0.540497 21.608 0.329521C21.397 0.118546 21.1109 1.49171e-05 20.8125 0L10.6875 0C10.3891 1.49171e-05 10.103 0.118546 9.89202 0.329521C9.68105 0.540497 9.56251 0.826636 9.5625 1.125V2.8125H5.0625C4.31685 2.81338 3.60199 3.10997 3.07473 3.63723C2.54747 4.16449 2.25088 4.87935 2.25 5.625V29.8125C2.25088 30.5582 2.54747 31.273 3.07473 31.8003C3.60199 32.3275 4.31685 32.6241 5.0625 32.625H11.8125C11.7449 33.0362 11.7667 33.4572 11.8762 33.8593C11.9857 34.2614 12.1805 34.6352 12.4473 34.9554C12.7141 35.2755 13.0467 35.5345 13.4225 35.7148C13.7982 35.895 14.2084 35.9923 14.6251 36H25.875C26.1728 35.997 26.4578 35.8789 26.6704 35.6704L33.4204 28.9204C33.6278 28.7071 33.7457 28.4225 33.75 28.125V14.0625C33.7491 13.3168 33.4525 12.602 32.9253 12.0747C32.398 11.5475 31.6832 11.2509 30.9375 11.25ZM11.8125 2.25H19.6875V5.625H11.8125V2.25ZM5.0625 30.375C4.91336 30.3749 4.77037 30.3155 4.66492 30.2101C4.55946 30.1046 4.50015 29.9616 4.5 29.8125V5.625C4.50015 5.47586 4.55946 5.33287 4.66492 5.22742C4.77037 5.12196 4.91336 5.06265 5.0625 5.0625H9.5625V6.75C9.56251 7.04836 9.68105 7.3345 9.89202 7.54548C10.103 7.75645 10.3891 7.87499 10.6875 7.875H20.8125C21.1109 7.87499 21.397 7.75645 21.608 7.54548C21.819 7.3345 21.9375 7.04836 21.9375 6.75V5.0625H26.4375C26.5866 5.06265 26.7296 5.12196 26.8351 5.22742C26.9405 5.33287 26.9999 5.47586 27 5.625V11.25H14.625C13.8793 11.2509 13.1645 11.5475 12.6372 12.0747C12.11 12.602 11.8134 13.3168 11.8125 14.0625V30.375H5.0625ZM14.0625 33.1875V14.0625C14.0626 13.9134 14.122 13.7704 14.2274 13.6649C14.3329 13.5595 14.4759 13.5001 14.625 13.5H30.9375C31.0866 13.5001 31.2296 13.5595 31.3351 13.6649C31.4405 13.7704 31.4999 13.9134 31.5 14.0625V27H27.5625C26.8168 27.0009 26.102 27.2975 25.5747 27.8247C25.0475 28.352 24.7509 29.0668 24.75 29.8125V33.75H14.625C14.4759 33.7499 14.3329 33.6905 14.2274 33.5851C14.122 33.4796 14.0626 33.3366 14.0625 33.1875ZM27 32.1589C27.0569 28.6583 26.4193 29.3102 29.909 29.25C29.184 29.975 27.7248 31.4342 27 32.1589Z" fill="#121212"/>
<path d="M18.5624 18.5625H27.5624C27.858 18.5582 28.14 18.4378 28.3474 18.2273C28.5549 18.0168 28.6712 17.7331 28.6712 17.4375C28.6712 17.1419 28.5549 16.8582 28.3474 16.6477C28.1399 16.4372 27.8579 16.3168 27.5624 16.3125H18.5624C18.2669 16.3168 17.9849 16.4372 17.7774 16.6477C17.5699 16.8582 17.4536 17.1419 17.4536 17.4375C17.4536 17.7331 17.5699 18.0168 17.7774 18.2273C17.9849 18.4378 18.2669 18.5582 18.5624 18.5625ZM18.5624 23.625H27.5624C27.858 23.6207 28.14 23.5003 28.3474 23.2898C28.5549 23.0793 28.6712 22.7956 28.6712 22.5C28.6712 22.2044 28.5549 21.9207 28.3474 21.7102C28.1399 21.4997 27.8579 21.3793 27.5624 21.375H18.5624C18.2669 21.3793 17.9849 21.4997 17.7774 21.7102C17.5699 21.9207 17.4536 22.2044 17.4536 22.5C17.4536 22.7956 17.5699 23.0793 17.7774 23.2898C17.9849 23.5003 18.2669 23.6207 18.5624 23.625ZM18.5624 26.4375C18.2669 26.4418 17.9849 26.5622 17.7774 26.7727C17.5699 26.9832 17.4536 27.2669 17.4536 27.5625C17.4536 27.8581 17.57 28.1418 17.7775 28.3523C17.9849 28.5628 18.2669 28.6832 18.5625 28.6875C18.858 28.6832 19.14 28.5628 19.3475 28.3523C19.555 28.1418 19.6713 27.8581 19.6713 27.5625C19.6713 27.2669 19.5549 26.9832 19.3475 26.7727C19.14 26.5622 18.858 26.4418 18.5624 26.4375Z" fill="#121212"/>
</svg>
