<svg width="24" height="24" viewBox="0 0 24 24" fill="none" xmlns="http://www.w3.org/2000/svg">
<path d="M7.34997 11.6438C7.62291 11.6438 7.88972 11.5629 8.11666 11.4112C8.3436 11.2596 8.52048 11.0441 8.62492 10.7919C8.72937 10.5397 8.7567 10.2623 8.70345 9.99457C8.65021 9.72687 8.51877 9.48098 8.32578 9.28798C8.13278 9.09499 7.88689 8.96355 7.6192 8.91031C7.3515 8.85706 7.07403 8.88439 6.82187 8.98884C6.56971 9.09328 6.35418 9.27016 6.20254 9.4971C6.05091 9.72404 5.96997 9.99085 5.96997 10.2638C5.96997 10.6298 6.11536 10.9808 6.37416 11.2396C6.63296 11.4984 6.98397 11.6438 7.34997 11.6438ZM7.34997 9.63379C7.47457 9.63379 7.59638 9.67074 7.69998 9.73996C7.80358 9.80919 7.88433 9.90758 7.93201 10.0227C7.9797 10.1378 7.99217 10.2645 7.96787 10.3867C7.94356 10.5089 7.88355 10.6212 7.79545 10.7093C7.70734 10.7974 7.59509 10.8574 7.47288 10.8817C7.35067 10.906 7.224 10.8935 7.10888 10.8458C6.99376 10.7982 6.89537 10.7174 6.82614 10.6138C6.75692 10.5102 6.71997 10.3884 6.71997 10.2638C6.71997 10.0967 6.78635 9.93646 6.90449 9.81831C7.02264 9.70016 7.18288 9.63379 7.34997 9.63379ZM9.91122 12.6C9.63828 12.6 9.37147 12.681 9.14453 12.8326C8.91759 12.9842 8.74072 13.1998 8.63627 13.4519C8.53182 13.7041 8.50449 13.9816 8.55774 14.2493C8.61098 14.517 8.74242 14.7629 8.93541 14.9558C9.12841 15.1488 9.3743 15.2803 9.642 15.3335C9.90969 15.3868 10.1872 15.3594 10.4393 15.255C10.6915 15.1505 10.907 14.9737 11.0586 14.7467C11.2103 14.5198 11.2912 14.253 11.2912 13.98C11.2902 13.6143 11.1445 13.2639 10.8859 13.0053C10.6273 12.7467 10.2769 12.601 9.91122 12.6ZM9.91122 14.61C9.78662 14.61 9.66481 14.5731 9.56121 14.5039C9.45761 14.4346 9.37686 14.3362 9.32918 14.2211C9.28149 14.106 9.26902 13.9793 9.29333 13.8571C9.31763 13.7349 9.37764 13.6227 9.46574 13.5346C9.55385 13.4465 9.66611 13.3865 9.78831 13.3621C9.91052 13.3378 10.0372 13.3503 10.1523 13.398C10.2674 13.4457 10.3658 13.5264 10.435 13.63C10.5043 13.7336 10.5412 13.8554 10.5412 13.98C10.5432 14.064 10.5284 14.1476 10.4976 14.2257C10.4669 14.3039 10.4208 14.3751 10.3621 14.4352C10.3034 14.4953 10.2333 14.5431 10.1558 14.5757C10.0784 14.6083 9.99523 14.6251 9.91122 14.625V14.61Z" fill="#121212" stroke="#121212" stroke-width="0.3"/>
<path d="M10.2692 9.11451L6.27197 14.7019L6.88195 15.1383L10.8792 9.55089L10.2692 9.11451Z" fill="#121212" stroke="#121212" stroke-width="0.3"/>
<path d="M16.875 9.75H16.125V11.25H16.875V9.75Z" fill="#121212" stroke="#121212" stroke-width="0.3"/>
<path d="M16.875 12.75H16.125V14.25H16.875V12.75Z" fill="#121212" stroke="#121212" stroke-width="0.3"/>
<path d="M22.5 5.62498H18C17.9506 5.62469 17.9017 5.63415 17.856 5.65281C17.8103 5.67147 17.7688 5.69897 17.7337 5.73373L16.5 6.97123L15.2662 5.73373C15.2312 5.69897 15.1897 5.67147 15.144 5.65281C15.0983 5.63415 15.0494 5.62469 15 5.62498H1.5C1.40054 5.62498 1.30516 5.66448 1.23483 5.73481C1.16451 5.80514 1.125 5.90052 1.125 5.99998V7.49998C1.125 7.59943 1.16451 7.69481 1.23483 7.76514C1.30516 7.83547 1.40054 7.87498 1.5 7.87498C1.69891 7.87498 1.88968 7.95399 2.03033 8.09465C2.17098 8.2353 2.25 8.42606 2.25 8.62498C2.25 8.82389 2.17098 9.01465 2.03033 9.15531C1.88968 9.29596 1.69891 9.37498 1.5 9.37498C1.40054 9.37498 1.30516 9.41448 1.23483 9.48481C1.16451 9.55514 1.125 9.65052 1.125 9.74998V10.875C1.125 10.9744 1.16451 11.0698 1.23483 11.1401C1.30516 11.2105 1.40054 11.25 1.5 11.25C1.69891 11.25 1.88968 11.329 2.03033 11.4696C2.17098 11.6103 2.25 11.8011 2.25 12C2.25 12.1989 2.17098 12.3897 2.03033 12.5303C1.88968 12.671 1.69891 12.75 1.5 12.75C1.40054 12.75 1.30516 12.7895 1.23483 12.8598C1.16451 12.9301 1.125 13.0255 1.125 13.125V14.25C1.125 14.3494 1.16451 14.4448 1.23483 14.5151C1.30516 14.5855 1.40054 14.625 1.5 14.625C1.69891 14.625 1.88968 14.704 2.03033 14.8446C2.17098 14.9853 2.25 15.1761 2.25 15.375C2.25 15.5739 2.17098 15.7647 2.03033 15.9053C1.88968 16.046 1.69891 16.125 1.5 16.125C1.40054 16.125 1.30516 16.1645 1.23483 16.2348C1.16451 16.3051 1.125 16.4005 1.125 16.5V18C1.125 18.0994 1.16451 18.1948 1.23483 18.2651C1.30516 18.3355 1.40054 18.375 1.5 18.375H15C15.0494 18.3753 15.0983 18.3658 15.144 18.3471C15.1897 18.3285 15.2312 18.301 15.2662 18.2662L16.5 17.0287L17.7337 18.2662C17.7688 18.301 17.8103 18.3285 17.856 18.3471C17.9017 18.3658 17.9506 18.3753 18 18.375H22.5C22.5995 18.375 22.6948 18.3355 22.7652 18.2651C22.8355 18.1948 22.875 18.0994 22.875 18V16.5C22.875 16.4005 22.8355 16.3051 22.7652 16.2348C22.6948 16.1645 22.5995 16.125 22.5 16.125C22.3011 16.125 22.1103 16.046 21.9697 15.9053C21.829 15.7647 21.75 15.5739 21.75 15.375C21.75 15.1761 21.829 14.9853 21.9697 14.8446C22.1103 14.704 22.3011 14.625 22.5 14.625C22.5995 14.625 22.6948 14.5855 22.7652 14.5151C22.8355 14.4448 22.875 14.3494 22.875 14.25V13.125C22.875 13.0255 22.8355 12.9301 22.7652 12.8598C22.6948 12.7895 22.5995 12.75 22.5 12.75C22.3011 12.75 22.1103 12.671 21.9697 12.5303C21.829 12.3897 21.75 12.1989 21.75 12C21.75 11.8011 21.829 11.6103 21.9697 11.4696C22.1103 11.329 22.3011 11.25 22.5 11.25C22.5995 11.25 22.6948 11.2105 22.7652 11.1401C22.8355 11.0698 22.875 10.9744 22.875 10.875V9.74998C22.875 9.65052 22.8355 9.55514 22.7652 9.48481C22.6948 9.41448 22.5995 9.37498 22.5 9.37498C22.3011 9.37498 22.1103 9.29596 21.9697 9.15531C21.829 9.01465 21.75 8.82389 21.75 8.62498C21.75 8.42606 21.829 8.2353 21.9697 8.09465C22.1103 7.95399 22.3011 7.87498 22.5 7.87498C22.5995 7.87498 22.6948 7.83547 22.7652 7.76514C22.8355 7.69481 22.875 7.59943 22.875 7.49998V5.99998C22.875 5.90052 22.8355 5.80514 22.7652 5.73481C22.6948 5.66448 22.5995 5.62498 22.5 5.62498ZM22.125 7.17373C21.804 7.25762 21.5199 7.44558 21.3171 7.70818C21.1143 7.97077 21.0043 8.29319 21.0043 8.62498C21.0043 8.95676 21.1143 9.27918 21.3171 9.54177C21.5199 9.80437 21.804 9.99233 22.125 10.0762V10.5487C21.804 10.6326 21.5199 10.8206 21.3171 11.0832C21.1143 11.3458 21.0043 11.6682 21.0043 12C21.0043 12.3318 21.1143 12.6542 21.3171 12.9168C21.5199 13.1794 21.804 13.3673 22.125 13.4512V13.9237C21.804 14.0076 21.5199 14.1956 21.3171 14.4582C21.1143 14.7208 21.0043 15.0432 21.0043 15.375C21.0043 15.7068 21.1143 16.0292 21.3171 16.2918C21.5199 16.5544 21.804 16.7423 22.125 16.8262V17.625H18.1537L16.875 16.3462V15.75H16.125V16.3462L14.8463 17.625H1.875V16.8262C2.196 16.7423 2.48012 16.5544 2.68291 16.2918C2.88569 16.0292 2.99569 15.7068 2.99569 15.375C2.99569 15.0432 2.88569 14.7208 2.68291 14.4582C2.48012 14.1956 2.196 14.0076 1.875 13.9237V13.4512C2.196 13.3673 2.48012 13.1794 2.68291 12.9168C2.88569 12.6542 2.99569 12.3318 2.99569 12C2.99569 11.6682 2.88569 11.3458 2.68291 11.0832C2.48012 10.8206 2.196 10.6326 1.875 10.5487V10.0762C2.196 9.99233 2.48012 9.80437 2.68291 9.54177C2.88569 9.27918 2.99569 8.95676 2.99569 8.62498C2.99569 8.29319 2.88569 7.97077 2.68291 7.70818C2.48012 7.44558 2.196 7.25762 1.875 7.17373V6.37498H14.8463L16.125 7.65373V8.24998H16.875V7.65373L18.1537 6.37498H22.125V7.17373Z" fill="#121212" stroke="#121212" stroke-width="0.3"/>
</svg>
