<svg width="24" height="24" viewBox="0 0 24 24" fill="none" xmlns="http://www.w3.org/2000/svg">
<path d="M23.4232 9.75C23.2839 9.61042 23.1184 9.49969 22.9362 9.42414C22.7541 9.34858 22.5588 9.30969 22.3616 9.30969C22.1644 9.30969 21.9691 9.34858 21.7869 9.42414C21.6048 9.49969 21.4393 9.61042 21.3 9.75L20.55 10.5L18.1365 12.9135V5.625C18.1343 5.6088 18.131 5.59276 18.1267 5.577C18.1248 5.56131 18.1218 5.54577 18.1177 5.5305C18.1031 5.46671 18.0718 5.40795 18.027 5.36025L12.777 0.11025C12.7296 0.0652812 12.6711 0.0337053 12.6075 0.01875C12.5924 0.0147036 12.5771 0.0116964 12.5617 0.00975C12.5455 0.00535593 12.5289 0.00209806 12.5122 0L2.01221 0C1.51493 0 1.03801 0.197544 0.686382 0.549175C0.334751 0.900805 0.137207 1.37772 0.137207 1.875V22.125C0.137207 22.6223 0.334751 23.0992 0.686382 23.4508C1.03801 23.8025 1.51493 24 2.01221 24H16.2622C16.5084 24 16.7523 23.9515 16.9797 23.8573C17.2072 23.763 17.4139 23.6249 17.588 23.4508C17.7621 23.2767 17.9003 23.07 17.9945 22.8425C18.0887 22.615 18.1372 22.3712 18.1372 22.125V17.157L22.6717 12.6225L23.4217 11.8725C23.5613 11.7333 23.672 11.5679 23.7476 11.3859C23.8233 11.2038 23.8622 11.0087 23.8624 10.8116C23.8625 10.6144 23.8238 10.4192 23.7485 10.2371C23.6731 10.0549 23.5626 9.88941 23.4232 9.75ZM12.8872 1.28025L16.857 5.25H14.0122C13.7138 5.25 13.4277 5.13147 13.2167 4.9205C13.0057 4.70952 12.8872 4.42337 12.8872 4.125V1.28025ZM12.525 5.25H3.51221C3.41275 5.25 3.31737 5.21049 3.24704 5.14016C3.17672 5.06984 3.13721 4.97446 3.13721 4.875V3.375C3.13721 3.27554 3.17672 3.18016 3.24704 3.10984C3.31737 3.03951 3.41275 3 3.51221 3H12.1372V4.125C12.1396 4.53238 12.2758 4.92768 12.525 5.25ZM17.3902 22.125C17.3902 22.4234 17.2717 22.7095 17.0607 22.9205C16.8497 23.1315 16.5636 23.25 16.2652 23.25H2.01521C1.71684 23.25 1.43069 23.1315 1.21971 22.9205C1.00873 22.7095 0.890207 22.4234 0.890207 22.125V1.875C0.890206 1.57715 1.00832 1.29146 1.21865 1.08056C1.42898 0.869671 1.71436 0.750794 2.01221 0.75H12.1372V2.25H3.51221C3.21384 2.25 2.92769 2.36853 2.71671 2.5795C2.50573 2.79048 2.38721 3.07663 2.38721 3.375V4.875C2.38721 5.17337 2.50573 5.45952 2.71671 5.6705C2.92769 5.88147 3.21384 6 3.51221 6H17.3872V13.6642L13.0815 17.97C13.0646 17.9903 13.05 18.0125 13.038 18.036C13.0305 18.048 13.0177 18.0548 13.0117 18.0675L11.9512 20.1885C11.921 20.2524 11.9097 20.3235 11.9188 20.3936C11.9278 20.4637 11.9568 20.5297 12.0022 20.5837L11.5357 21.0548C11.4973 21.0889 11.4663 21.1305 11.4447 21.1771C11.423 21.2236 11.4112 21.2742 11.4098 21.3255C11.4085 21.3768 11.4178 21.4279 11.437 21.4755C11.4562 21.5232 11.485 21.5663 11.5216 21.6024C11.5582 21.6384 11.6018 21.6665 11.6498 21.685C11.6977 21.7035 11.7489 21.7119 11.8002 21.7098C11.8515 21.7077 11.9019 21.6951 11.9481 21.6727C11.9943 21.6503 12.0355 21.6187 12.069 21.5798L12.5227 21.1208L12.5512 21.1493C12.6068 21.2049 12.6785 21.2417 12.7562 21.2543C12.8339 21.267 12.9135 21.2549 12.984 21.2197L15.105 20.1585C15.1177 20.1525 15.1245 20.1397 15.1365 20.1322C15.16 20.1202 15.1821 20.1057 15.2025 20.0887L17.3872 17.9047L17.3902 22.125ZM13.4527 18.8685L14.3077 19.7235L12.894 20.4307L12.7927 20.3288V20.3243H12.7882L12.7492 20.2853L13.4527 18.8685ZM17.5027 16.7355L14.9437 19.2938L13.875 18.2355L20.814 11.2965L21.8745 12.357L17.5027 16.7355ZM22.8975 11.3407L22.4115 11.8267L21.3502 10.7655L21.8362 10.2795C21.9059 10.2098 21.9886 10.1545 22.0797 10.1168C22.1707 10.0791 22.2683 10.0597 22.3668 10.0597C22.4654 10.0597 22.563 10.0791 22.654 10.1168C22.745 10.1545 22.8278 10.2098 22.8975 10.2795C22.9671 10.3492 23.0224 10.4319 23.0601 10.523C23.0978 10.614 23.1172 10.7116 23.1172 10.8101C23.1172 10.9087 23.0978 11.0063 23.0601 11.0973C23.0224 11.1883 22.9671 11.2711 22.8975 11.3407ZM6.51221 12H15.5122C15.6117 12 15.707 11.9605 15.7774 11.8902C15.8477 11.8198 15.8872 11.7245 15.8872 11.625C15.8872 11.5255 15.8477 11.4302 15.7774 11.3598C15.707 11.2895 15.6117 11.25 15.5122 11.25H6.51221C6.41275 11.25 6.31737 11.2895 6.24704 11.3598C6.17672 11.4302 6.13721 11.5255 6.13721 11.625C6.13721 11.7245 6.17672 11.8198 6.24704 11.8902C6.31737 11.9605 6.41275 12 6.51221 12ZM6.51221 9.75H15.5122C15.6117 9.75 15.707 9.71049 15.7774 9.64017C15.8477 9.56984 15.8872 9.47446 15.8872 9.375C15.8872 9.27554 15.8477 9.18016 15.7774 9.10983C15.707 9.03951 15.6117 9 15.5122 9H6.51221C6.41275 9 6.31737 9.03951 6.24704 9.10983C6.17672 9.18016 6.13721 9.27554 6.13721 9.375C6.13721 9.47446 6.17672 9.56984 6.24704 9.64017C6.31737 9.71049 6.41275 9.75 6.51221 9.75ZM10.2622 20.9437C9.97335 20.9511 9.68991 20.8645 9.45446 20.697C9.09909 20.4663 8.6845 20.3436 8.26083 20.3436C7.83716 20.3436 7.42257 20.4663 7.06721 20.697C6.83176 20.8645 6.54832 20.9511 6.25946 20.9437C5.97169 20.9516 5.68911 20.8661 5.45396 20.7C5.10253 20.4623 4.6864 20.3387 4.26221 20.346C4.16275 20.346 4.06737 20.3855 3.99704 20.4558C3.92672 20.5262 3.88721 20.6215 3.88721 20.721C3.88721 20.8205 3.92672 20.9158 3.99704 20.9862C4.06737 21.0565 4.16275 21.096 4.26221 21.096C4.55057 21.0889 4.83347 21.1755 5.06846 21.3428C5.41988 21.5804 5.83602 21.704 6.26021 21.6968C6.68477 21.7041 7.10133 21.5808 7.45346 21.3435C7.69201 21.1827 7.97315 21.0968 8.26083 21.0968C8.54852 21.0968 8.82965 21.1827 9.06821 21.3435C9.42033 21.5808 9.8369 21.7041 10.2615 21.6968C10.3609 21.6968 10.4563 21.6572 10.5266 21.5869C10.5969 21.5166 10.6365 21.4212 10.6365 21.3218C10.6365 21.2223 10.5969 21.1269 10.5266 21.0566C10.4563 20.9863 10.3609 20.9468 10.2615 20.9468L10.2622 20.9437ZM6.51221 8.25H15.5122C15.6117 8.25 15.707 8.21049 15.7774 8.14017C15.8477 8.06984 15.8872 7.97446 15.8872 7.875C15.8872 7.77554 15.8477 7.68016 15.7774 7.60983C15.707 7.53951 15.6117 7.5 15.5122 7.5H6.51221C6.41275 7.5 6.31737 7.53951 6.24704 7.60983C6.17672 7.68016 6.13721 7.77554 6.13721 7.875C6.13721 7.97446 6.17672 8.06984 6.24704 8.14017C6.31737 8.21049 6.41275 8.25 6.51221 8.25ZM6.51221 13.5H15.5122C15.6117 13.5 15.707 13.4605 15.7774 13.3902C15.8477 13.3198 15.8872 13.2245 15.8872 13.125C15.8872 13.0255 15.8477 12.9302 15.7774 12.8598C15.707 12.7895 15.6117 12.75 15.5122 12.75H6.51221C6.41275 12.75 6.31737 12.7895 6.24704 12.8598C6.17672 12.9302 6.13721 13.0255 6.13721 13.125C6.13721 13.2245 6.17672 13.3198 6.24704 13.3902C6.31737 13.4605 6.41275 13.5 6.51221 13.5ZM3.51221 13.5C3.73471 13.5 3.95222 13.434 4.13722 13.3104C4.32223 13.1868 4.46642 13.0111 4.55157 12.8055C4.63672 12.6 4.659 12.3738 4.61559 12.1555C4.57218 11.9373 4.46504 11.7368 4.3077 11.5795C4.15037 11.4222 3.94991 11.315 3.73168 11.2716C3.51345 11.2282 3.28726 11.2505 3.08169 11.3356C2.87612 11.4208 2.70042 11.565 2.5768 11.75C2.45319 11.935 2.38721 12.1525 2.38721 12.375C2.38721 12.6734 2.50573 12.9595 2.71671 13.1705C2.92769 13.3815 3.21384 13.5 3.51221 13.5ZM3.51221 12C3.58637 12 3.65888 12.022 3.72055 12.0632C3.78221 12.1044 3.83028 12.163 3.85866 12.2315C3.88704 12.3 3.89447 12.3754 3.88 12.4482C3.86553 12.5209 3.82982 12.5877 3.77737 12.6402C3.72493 12.6926 3.65811 12.7283 3.58537 12.7428C3.51262 12.7573 3.43722 12.7498 3.3687 12.7215C3.30018 12.6931 3.24161 12.645 3.20041 12.5833C3.1592 12.5217 3.13721 12.4492 3.13721 12.375C3.13721 12.2755 3.17672 12.1802 3.24704 12.1098C3.31737 12.0395 3.41275 12 3.51221 12ZM4.63721 16.125C4.63721 15.9025 4.57123 15.685 4.44761 15.5C4.32399 15.315 4.14829 15.1708 3.94273 15.0856C3.73716 15.0005 3.51096 14.9782 3.29273 15.0216C3.0745 15.065 2.87405 15.1722 2.71671 15.3295C2.55938 15.4868 2.45223 15.6873 2.40882 15.9055C2.36542 16.1238 2.38769 16.35 2.47284 16.5555C2.55799 16.7611 2.70219 16.9368 2.88719 17.0604C3.0722 17.184 3.2897 17.25 3.51221 17.25C3.81058 17.25 4.09672 17.1315 4.3077 16.9205C4.51868 16.7095 4.63721 16.4234 4.63721 16.125ZM3.51221 16.5C3.43804 16.5 3.36554 16.478 3.30387 16.4368C3.2422 16.3956 3.19413 16.337 3.16575 16.2685C3.13737 16.2 3.12994 16.1246 3.14441 16.0518C3.15888 15.9791 3.1946 15.9123 3.24704 15.8598C3.29949 15.8074 3.36631 15.7717 3.43905 15.7572C3.51179 15.7427 3.58719 15.7502 3.65571 15.7785C3.72424 15.8069 3.7828 15.855 3.82401 15.9167C3.86521 15.9783 3.88721 16.0508 3.88721 16.125C3.88721 16.2245 3.8477 16.3198 3.77737 16.3902C3.70705 16.4605 3.61166 16.5 3.51221 16.5ZM6.51221 15.75H12.5122C12.6117 15.75 12.707 15.7105 12.7774 15.6402C12.8477 15.5698 12.8872 15.4745 12.8872 15.375C12.8872 15.2755 12.8477 15.1802 12.7774 15.1098C12.707 15.0395 12.6117 15 12.5122 15H6.51221C6.41275 15 6.31737 15.0395 6.24704 15.1098C6.17672 15.1802 6.13721 15.2755 6.13721 15.375C6.13721 15.4745 6.17672 15.5698 6.24704 15.6402C6.31737 15.7105 6.41275 15.75 6.51221 15.75ZM3.51221 9.75C3.73471 9.75 3.95222 9.68402 4.13722 9.5604C4.32223 9.43679 4.46642 9.26109 4.55157 9.05552C4.63672 8.84995 4.659 8.62375 4.61559 8.40552C4.57218 8.18729 4.46504 7.98684 4.3077 7.8295C4.15037 7.67217 3.94991 7.56502 3.73168 7.52162C3.51345 7.47821 3.28726 7.50049 3.08169 7.58564C2.87612 7.67078 2.70042 7.81498 2.5768 7.99998C2.45319 8.18499 2.38721 8.4025 2.38721 8.625C2.38721 8.92337 2.50573 9.20952 2.71671 9.4205C2.92769 9.63147 3.21384 9.75 3.51221 9.75ZM3.51221 8.25C3.58637 8.25 3.65888 8.27199 3.72055 8.3132C3.78221 8.3544 3.83028 8.41297 3.85866 8.48149C3.88704 8.55002 3.89447 8.62542 3.88 8.69816C3.86553 8.7709 3.82982 8.83772 3.77737 8.89017C3.72493 8.94261 3.65811 8.97832 3.58537 8.99279C3.51262 9.00726 3.43722 8.99984 3.3687 8.97145C3.30018 8.94307 3.24161 8.89501 3.20041 8.83334C3.1592 8.77167 3.13721 8.69917 3.13721 8.625C3.13721 8.52554 3.17672 8.43016 3.24704 8.35983C3.31737 8.28951 3.41275 8.25 3.51221 8.25ZM6.51221 17.25H12.5122C12.6117 17.25 12.707 17.2105 12.7774 17.1402C12.8477 17.0698 12.8872 16.9745 12.8872 16.875C12.8872 16.7755 12.8477 16.6802 12.7774 16.6098C12.707 16.5395 12.6117 16.5 12.5122 16.5H6.51221C6.41275 16.5 6.31737 16.5395 6.24704 16.6098C6.17672 16.6802 6.13721 16.7755 6.13721 16.875C6.13721 16.9745 6.17672 17.0698 6.24704 17.1402C6.31737 17.2105 6.41275 17.25 6.51221 17.25Z" fill="#121212" stroke="#121212" stroke-width="0.3"/>
</svg>
