<svg width="24" height="24" viewBox="0 0 24 24" fill="none" xmlns="http://www.w3.org/2000/svg">
<g clip-path="url(#clip0)">
<mask id="path-1-inside-1" fill="white">
<path d="M19.1677 10.8089V15.8501C19.1677 18.9541 16.8625 21.47 14.0187 21.47H9.08333C6.23953 21.47 3.93433 18.9541 3.93433 15.8501V10.8089"/>
</mask>
<path d="M17.6677 10.8089V15.8501H20.6677V10.8089H17.6677ZM17.6677 15.8501C17.6677 18.2519 15.9132 19.97 14.0187 19.97V22.97C17.8118 22.97 20.6677 19.6562 20.6677 15.8501H17.6677ZM14.0187 19.97H9.08333V22.97H14.0187V19.97ZM9.08333 19.97C7.18882 19.97 5.43433 18.2519 5.43433 15.8501H2.43433C2.43433 19.6562 5.29023 22.97 9.08333 22.97V19.97ZM5.43433 15.8501V10.8089H2.43433V15.8501H5.43433Z" fill="#121212" mask="url(#path-1-inside-1)"/>
<path d="M8.91403 4.11985L8.91412 4.11979C10.5484 3.00024 12.5528 3.00016 14.1878 4.11983C14.1879 4.11984 14.1879 4.11985 14.1879 4.11985L20.121 8.18363L20.1211 8.1837C20.2803 8.29269 20.4003 8.5149 20.4003 8.80002C20.4003 9.08516 20.2803 9.30745 20.1211 9.41646L14.1869 13.4796L14.1868 13.4797C12.5527 14.5989 10.5492 14.599 8.91437 13.4796L2.9801 9.41651C2.98006 9.41648 2.98001 9.41644 2.97997 9.41641C2.82095 9.3074 2.70094 9.08515 2.70093 8.80002C2.70091 8.51482 2.82094 8.29261 2.98003 8.18366L8.91403 4.11985Z" stroke="#121212" stroke-width="1.5" stroke-miterlimit="10"/>
<mask id="path-4-inside-2" fill="white">
<path d="M11.551 8.8L18.9041 8.9916C19.5054 9.00729 20.0767 9.25717 20.4965 9.688C20.9162 10.1188 21.1511 10.6965 21.1511 11.298V16.14"/>
</mask>
<path d="M11.5771 7.80034C11.025 7.78595 10.5658 8.22185 10.5514 8.77395C10.537 9.32605 10.9729 9.78527 11.525 9.79966L11.5771 7.80034ZM18.9041 8.9916L18.9302 7.99194L18.9301 7.99194L18.9041 8.9916ZM21.1511 11.298H22.1511V11.298L21.1511 11.298ZM20.1511 16.14C20.1511 16.6923 20.5988 17.14 21.1511 17.14C21.7034 17.14 22.1511 16.6923 22.1511 16.14H20.1511ZM11.525 9.79966L18.878 9.99126L18.9301 7.99194L11.5771 7.80034L11.525 9.79966ZM18.878 9.99126C19.2187 10.0002 19.5424 10.1417 19.7802 10.3858L21.2127 8.99017C20.6111 8.37262 19.792 8.01444 18.9302 7.99194L18.878 9.99126ZM19.7802 10.3858C20.018 10.6299 20.1511 10.9572 20.1511 11.298L22.1511 11.298C22.1511 10.4358 21.8144 9.60772 21.2127 8.99017L19.7802 10.3858ZM20.1511 11.298V16.14H22.1511V11.298H20.1511Z" fill="#121212" mask="url(#path-4-inside-2)"/>
<path d="M21.1509 16.6393C21.3708 16.6393 21.5491 16.8175 21.5491 17.0375V18.7209C21.5491 18.9408 21.3708 19.1191 21.1509 19.1191C20.931 19.1191 20.7527 18.9408 20.7527 18.7209V17.0375C20.7527 16.8175 20.931 16.6393 21.1509 16.6393Z" stroke="#121212" stroke-miterlimit="10" stroke-linecap="round"/>
</g>
<defs>
<clipPath id="clip0">
<rect width="24" height="24" fill="white"/>
</clipPath>
</defs>
</svg>
