<svg width="24" height="24" viewBox="0 0 24 24" fill="none" xmlns="http://www.w3.org/2000/svg">
<path d="M20.625 7.5H19.5V3.75C19.4994 3.2529 19.3017 2.77632 18.9502 2.42482C18.5987 2.07332 18.1221 1.87558 17.625 1.875H14.625V0.75C14.625 0.551091 14.546 0.360331 14.4053 0.219681C14.2647 0.0790308 14.0739 9.94472e-06 13.875 0L7.125 0C6.92609 9.94472e-06 6.73533 0.0790308 6.59468 0.219681C6.45403 0.360331 6.37501 0.551091 6.375 0.75V1.875H3.375C2.8779 1.87558 2.40132 2.07332 2.04982 2.42482C1.69832 2.77632 1.50058 3.2529 1.5 3.75V19.875C1.50058 20.3721 1.69832 20.8487 2.04982 21.2002C2.40132 21.5517 2.8779 21.7494 3.375 21.75H7.875C7.82996 22.0242 7.84445 22.3048 7.91747 22.5729C7.9905 22.8409 8.12035 23.0902 8.29822 23.3036C8.47609 23.517 8.69781 23.6897 8.94831 23.8099C9.19882 23.93 9.47225 23.9949 9.75004 24H17.25C17.4485 23.998 17.6385 23.9193 17.7803 23.7803L22.2803 19.2803C22.4185 19.138 22.4971 18.9483 22.5 18.75V9.375C22.4994 8.8779 22.3017 8.40132 21.9502 8.04982C21.5987 7.69832 21.1221 7.50058 20.625 7.5ZM7.875 1.5H13.125V3.75H7.875V1.5ZM3.375 20.25C3.27557 20.2499 3.18025 20.2104 3.10994 20.1401C3.03964 20.0697 3.0001 19.9744 3 19.875V3.75C3.0001 3.65057 3.03964 3.55525 3.10994 3.48494C3.18025 3.41464 3.27557 3.3751 3.375 3.375H6.375V4.5C6.37501 4.69891 6.45403 4.88967 6.59468 5.03032C6.73533 5.17097 6.92609 5.24999 7.125 5.25H13.875C14.0739 5.24999 14.2647 5.17097 14.4053 5.03032C14.546 4.88967 14.625 4.69891 14.625 4.5V3.375H17.625C17.7244 3.3751 17.8197 3.41464 17.8901 3.48494C17.9604 3.55525 17.9999 3.65057 18 3.75V7.5H9.75C9.2529 7.50058 8.77632 7.69832 8.42482 8.04982C8.07332 8.40132 7.87558 8.8779 7.875 9.375V20.25H3.375ZM9.375 22.125V9.375C9.3751 9.27557 9.41464 9.18025 9.48494 9.10995C9.55525 9.03964 9.65057 9.0001 9.75 9H20.625C20.7244 9.0001 20.8197 9.03964 20.8901 9.10995C20.9604 9.18025 20.9999 9.27557 21 9.375V18H18.375C17.8779 18.0006 17.4013 18.1983 17.0498 18.5498C16.6983 18.9013 16.5006 19.3779 16.5 19.875V22.5H9.75C9.65057 22.4999 9.55525 22.4604 9.48494 22.3901C9.41464 22.3197 9.3751 22.2244 9.375 22.125ZM18 21.4393C18.038 19.1056 17.6129 19.5401 19.9393 19.5C19.456 19.9833 18.4832 20.9561 18 21.4393Z" fill="#121212"/>
<path d="M12.375 12.375H18.375C18.572 12.3721 18.76 12.2919 18.8983 12.1515C19.0366 12.0112 19.1141 11.822 19.1141 11.625C19.1141 11.4279 19.0366 11.2388 18.8983 11.0985C18.7599 10.9581 18.5719 10.8779 18.3749 10.875H12.375C12.1779 10.8779 11.9899 10.9581 11.8516 11.0985C11.7133 11.2388 11.6357 11.4279 11.6357 11.625C11.6357 11.8221 11.7133 12.0112 11.8516 12.1515C11.9899 12.2919 12.1779 12.3721 12.375 12.375ZM12.375 15.75H18.375C18.572 15.7471 18.76 15.6669 18.8983 15.5265C19.0366 15.3862 19.1141 15.197 19.1141 15C19.1141 14.8029 19.0366 14.6138 18.8983 14.4735C18.7599 14.3331 18.5719 14.2529 18.3749 14.25H12.375C12.1779 14.2529 11.9899 14.3331 11.8516 14.4735C11.7133 14.6138 11.6357 14.8029 11.6357 15C11.6357 15.1971 11.7133 15.3862 11.8516 15.5265C11.9899 15.6669 12.1779 15.7471 12.375 15.75ZM12.375 17.625C12.1779 17.6279 11.9899 17.7081 11.8516 17.8485C11.7133 17.9888 11.6358 18.178 11.6358 18.375C11.6358 18.5721 11.7133 18.7612 11.8516 18.9015C11.99 19.0419 12.178 19.1221 12.375 19.125C12.572 19.1221 12.76 19.0419 12.8983 18.9015C13.0366 18.7612 13.1142 18.572 13.1142 18.375C13.1142 18.1779 13.0366 17.9888 12.8983 17.8485C12.76 17.7081 12.572 17.6279 12.375 17.625Z" fill="#121212"/>
</svg>
