<svg width="20" height="20" viewBox="0 0 20 20" fill="none" xmlns="http://www.w3.org/2000/svg">
<path d="M15.9977 19.7455C11.9912 19.7455 7.98325 19.7582 3.976 19.7455C2.038 19.7275 0.256 18.0452 0.25 15.997V3.99849C0.27775 3.42174 1.03225 3.03399 1.49125 3.43149C1.61725 3.54099 1.70425 3.69249 1.7365 3.85674C1.7485 3.91899 1.747 3.93474 1.75 3.99849C1.75 8.00724 1.7125 12.016 1.75 16.024C1.768 17.1842 2.77225 18.2342 3.985 18.2455C6.9895 18.2552 9.99325 18.2455 12.9977 18.2455C12.9835 18.2275 12.97 18.2087 12.9565 18.1892C12.4967 17.548 12.25 16.7755 12.2477 15.997V1.74849H1C1 1.74849 0.277 1.58349 0.25075 1.03449C0.232 0.632487 0.583 0.268737 1 0.249237H12.9977C13.4005 0.267237 13.7282 0.586737 13.7477 0.998487C13.7477 6.00699 13.7012 11.0162 13.7477 16.024C13.7657 17.1715 14.7535 18.2155 15.952 18.2455C16.0112 18.2387 15.9932 18.2492 16.1282 18.2417C17.2547 18.1742 18.2432 17.1707 18.247 15.9947V9.24774H15.997C15.997 9.24774 15.634 9.20799 15.4472 9.00774C15.0895 8.62149 15.2987 7.84449 15.8852 7.75599C15.9347 7.74849 15.9475 7.74924 15.997 7.74774H18.997C19.015 7.74849 19.0337 7.74924 19.0525 7.74999C19.2242 7.76874 19.2512 7.78749 19.3217 7.82199C19.5745 7.94349 19.7357 8.21424 19.7462 8.49774C19.7462 11.005 19.7545 13.513 19.7462 16.0202C19.7282 17.9732 18.0167 19.7387 15.9977 19.7455ZM8.4985 15.2462H5.49925C4.91575 15.235 4.5235 14.4572 4.9435 13.993C5.083 13.8385 5.287 13.7507 5.49925 13.7462H8.4985C8.50825 13.747 8.51875 13.747 8.5285 13.747C9.18325 13.786 9.5155 14.8142 8.84275 15.1622C8.737 15.217 8.62 15.244 8.4985 15.2462ZM9.9985 12.247H3.99925C3.8275 12.2417 3.7705 12.2192 3.67375 12.1727C3.214 11.9507 3.1165 11.2037 3.56575 10.8857C3.65725 10.8205 3.763 10.7762 3.874 10.7575C3.91525 10.7507 3.95725 10.7485 3.99925 10.747H9.9985C10.012 10.7477 10.0262 10.7477 10.0405 10.7485C10.5925 10.795 10.9727 11.5315 10.5572 11.9965C10.4162 12.154 10.273 12.2395 9.9985 12.247ZM9.9985 9.24774H3.99925C3.4255 9.23124 3.01525 8.47299 3.4405 7.99749C3.58075 7.83999 3.72475 7.75524 3.99925 7.74774H9.9985C10.012 7.74774 10.0262 7.74849 10.0405 7.74849C10.5947 7.79574 10.9607 8.54574 10.5572 8.99724C10.4162 9.15474 10.273 9.23949 9.9985 9.24774ZM9.9985 6.24774H3.99925C3.427 6.23199 3.01825 5.46999 3.4405 4.99824C3.58075 4.84074 3.72475 4.75599 3.99925 4.74849H9.9985C10.012 4.74849 10.0262 4.74924 10.0405 4.74924C10.2122 4.76349 10.267 4.78974 10.3608 4.84149C10.7928 5.08074 10.8722 5.79774 10.432 6.10974C10.3405 6.17424 10.2347 6.21849 10.1237 6.23724C10.0825 6.24399 10.0405 6.24699 9.9985 6.24774Z" fill="#121212"/>
</svg>
