<svg width="24" height="24" viewBox="0 0 24 24" fill="none" xmlns="http://www.w3.org/2000/svg">
<path d="M2.87998 18.8995H9.0848V20.7609H7.97672C7.21592 20.7609 6.59715 21.3797 6.59715 22.1404C6.59715 22.9012 7.21592 23.52 7.97672 23.52H16.0232C16.784 23.52 17.4028 22.9012 17.4028 22.1404C17.4028 21.3797 16.784 20.7609 16.0232 20.7609H14.9151V18.8995H21.12C22.4433 18.8995 23.52 17.8228 23.52 16.4995V16.1255V3.25449V2.88C23.52 1.55668 22.4433 0.479996 21.12 0.479996H2.87998C1.55672 0.479996 0.47998 1.55668 0.47998 2.88V3.25449V16.1255V16.4995C0.47998 17.8228 1.55672 18.8995 2.87998 18.8995ZM22.56 15.6455H17.5598V15.3276C17.5598 14.1267 16.7147 13.0687 15.547 12.8039C15.2635 12.7218 14.8243 12.7303 14.3854 12.2756C14.099 11.9822 13.9411 11.5931 13.9411 11.1806V11.0603C14.7227 10.1952 15.2044 8.9267 15.2044 7.93968C15.2044 6.18364 13.7765 4.73481 12 4.73481C10.2022 4.73481 8.7956 6.21412 8.7956 7.93968C8.7956 8.92608 9.2767 10.1937 10.0575 11.0588V11.1806C10.0575 11.6086 9.88918 12.008 9.57886 12.3098C9.16361 12.7257 8.72648 12.7248 8.45715 12.8039C7.28624 13.0687 6.43827 14.1272 6.43827 15.3276V15.6455H1.43998V3.73449H22.56V15.6455ZM12 5.69481C12.6875 5.69481 13.2962 6.01224 13.7082 6.50083C13.5096 6.48513 13.2919 6.42811 13.072 6.2892C12.8648 6.15888 12.5948 6.2039 12.4415 6.39326C12.1214 6.78984 11.0367 7.84636 10.2703 7.49016C9.99589 7.36358 9.90737 7.25361 9.88731 7.21113C10.1916 6.33187 11.0188 5.69481 12 5.69481ZM9.86811 8.36203C10.1142 8.47545 10.3612 8.52374 10.604 8.52374C11.5861 8.52374 12.4917 7.73433 12.9244 7.28952C13.32 7.4518 13.7528 7.50033 14.1829 7.43721C14.2203 7.59931 14.2444 7.76635 14.2444 7.93968C14.2444 9.28497 13.1348 11.0868 12 11.0868C10.9682 11.0868 9.96022 9.59803 9.78517 8.31648C9.81425 8.33112 9.83758 8.34787 9.86811 8.36203ZM10.9405 11.7673C11.2684 11.9421 11.6228 12.0468 12 12.0468C12.3763 12.0468 12.73 11.9426 13.0572 11.7686C13.1347 12.0945 13.2766 12.3981 13.4754 12.6688L11.9945 15.614L10.4904 12.7099C10.7039 12.4293 10.8581 12.1096 10.9405 11.7673ZM9.75387 13.3758L10.9295 15.6455H7.39827V15.3276C7.39827 14.5683 7.93779 13.8994 8.68121 13.7372C9.09363 13.6488 9.38825 13.588 9.75387 13.3758ZM14.2067 13.3516C14.5988 13.59 14.9229 13.6509 15.322 13.7372C16.0622 13.8989 16.5998 14.5678 16.5998 15.3276V15.6455H13.0533L14.2067 13.3516ZM16.4428 22.1404C16.4428 22.372 16.2548 22.56 16.0232 22.56H7.97672C7.74512 22.56 7.55715 22.372 7.55715 22.1404C7.55715 21.9089 7.74512 21.7209 7.97672 21.7209H16.0232C16.2548 21.7209 16.4428 21.9089 16.4428 22.1404ZM13.9551 20.7609H10.0448V18.8995H13.9551V20.7609ZM21.12 17.9395H14.4351H9.5648H2.87998C2.1222 17.9395 1.50603 17.3493 1.45068 16.6055H22.5493C22.4939 17.3493 21.8778 17.9395 21.12 17.9395ZM2.87998 1.44H21.12C21.8779 1.44 22.4942 2.0304 22.5493 2.77449H1.45064C1.50574 2.0304 2.12201 1.44 2.87998 1.44Z" fill="#121212"/>
</svg>
